<svg width="23" height="21" viewBox="0 0 23 21" fill="none" xmlns="http://www.w3.org/2000/svg">
<path d="M21.0881 12.0989L22.9758 3.79336C23.1121 3.19368 22.6562 2.62263 22.0413 2.62263H6.35726L5.99126 0.833345C5.90006 0.387361 5.50762 0.0670776 5.05237 0.0670776H0.958333C0.429054 0.0670776 0 0.496131 0 1.02541V1.6643C0 2.19358 0.429054 2.62263 0.958333 2.62263H3.7488L6.55384 16.3362C5.88277 16.7221 5.43056 17.4457 5.43056 18.2754C5.43056 19.5104 6.4317 20.5115 7.66667 20.5115C8.90164 20.5115 9.90278 19.5104 9.90278 18.2754C9.90278 17.6495 9.64535 17.0841 9.23099 16.6782H17.6023C17.188 17.0841 16.9306 17.6495 16.9306 18.2754C16.9306 19.5104 17.9317 20.5115 19.1667 20.5115C20.4016 20.5115 21.4028 19.5104 21.4028 18.2754C21.4028 17.3901 20.8882 16.625 20.1418 16.2627L20.3621 15.2934C20.4984 14.6937 20.0426 14.1226 19.4276 14.1226H8.70953L8.44819 12.8449H20.1536C20.6011 12.8449 20.989 12.5352 21.0881 12.0989Z" fill="white"/>
</svg>
