<svg width="26" height="19" viewBox="0 0 26 19" fill="none" xmlns="http://www.w3.org/2000/svg">
<path d="M24.8534 6.27396C25.0464 6.12057 25.3333 6.26406 25.3333 6.50651V16.625C25.3333 17.9362 24.2695 19 22.9583 19H2.375C1.0638 19 0 17.9362 0 16.625V6.51146C0 6.26406 0.282031 6.12552 0.479948 6.27891C1.58828 7.13984 3.05781 8.23333 8.10469 11.8997C9.1487 12.6617 10.9102 14.2648 12.6667 14.2549C14.4331 14.2698 16.2292 12.632 17.2336 11.8997C22.2805 8.23333 23.7451 7.1349 24.8534 6.27396ZM12.6667 12.6667C13.8146 12.6865 15.4672 11.2219 16.2984 10.6182C22.8643 5.85339 23.3641 5.43776 24.8781 4.25026C25.1651 4.0276 25.3333 3.68125 25.3333 3.3151V2.375C25.3333 1.0638 24.2695 0 22.9583 0H2.375C1.0638 0 0 1.0638 0 2.375V3.3151C0 3.68125 0.168229 4.02266 0.455208 4.25026C1.96927 5.43281 2.46901 5.85339 9.0349 10.6182C9.86615 11.2219 11.5188 12.6865 12.6667 12.6667Z" fill="#FF9900"/>
</svg>
